<svg width="73" height="64" viewBox="0 0 73 64" fill="none" xmlns="http://www.w3.org/2000/svg">
<path d="M0.430121 12.4693V14.9693C0.430067 15.9691 0.930176 14.9693 8.93018 15.9695C15.3302 16.7697 21.9302 22.9695 25.9302 24.9695C35.5302 30.5695 41.4302 29.2772 44.9302 28.4695C51.4302 26.9695 54.9302 23.4695 63.4302 19.9695C70.2302 17.1695 72.2635 15.1362 72.4302 14.4695V10.4695C72.4302 10.0695 71.0968 9.96952 70.4302 9.96952C68.7635 10.1362 64.5302 10.4695 60.9302 10.4695C57.3302 10.4695 50.0968 7.46952 46.9302 5.96952C46.4302 5.46945 43.4302 3.86931 35.4302 1.46931C27.4302 -0.930687 19.0968 2.13598 15.9302 3.96931C14.2635 4.96931 9.83012 7.36931 5.43012 8.96931C1.03012 10.5693 0.263455 11.9693 0.430121 12.4693Z" fill="#F6F1E3"/>
<path d="M6.88487 23.6926C0.884874 22.8926 0.051541 26.3593 0.384874 28.1926C-0.115174 32.1927 1.38492 33.1924 6.88487 33.6925C12.3848 34.1926 21.8849 37.6925 30.8849 41.6925C39.8849 45.6925 47.3849 44.1925 50.3849 42.6925C53.3849 41.1925 67.3849 33.6925 70.3849 32.6925C73.3849 31.6925 72.3849 29.6924 72.3849 24.1924C72.3849 19.7924 65.0516 23.6924 61.3849 26.1924C58.7183 28.0257 51.5849 31.9924 44.3849 33.1924C35.3849 34.6924 33.3849 31.6924 24.8849 28.1926C16.3849 24.6928 14.3849 24.6926 6.88487 23.6926Z" fill="#F6F1E3"/>
<path d="M0.458195 47.2689L0.464498 47.3035C-0.0355495 51.3037 1.46454 52.3033 6.9645 52.8034C12.4644 53.3036 19.9645 56.3103 28.9645 60.3103C37.9645 64.3103 44.9646 63.8095 47.9646 62.3095C50.9646 60.8095 67.9646 50.8095 70.9646 49.8095C73.9646 48.8095 72.4646 45.3096 72.4646 39.8096C72.4646 35.4096 65.1313 39.3096 61.4646 41.8096C58.7979 43.6429 52.1646 48.6096 44.9646 49.8096C35.9646 51.3096 30.689 47.4091 22.4646 43.3033C14.4646 39.3096 11.9646 38.3096 4.46461 37.3096C-1.49847 36.5145 0.110943 45.3603 0.458195 47.2689Z" fill="#F6F1E3"/>
</svg>
